Coordinates
version=1
nRows=14
nColumns=24
inDegrees=yes

Units are S.I. units (second, meters, Newtons, ...)
Angles are in degrees.

endheader
time	pelvis_tilt	pelvis_list	pelvis_rotation	pelvis_tx	pelvis_ty	pelvis_tz	hip_flexion_r	hip_adduction_r	hip_rotation_r	knee_angle_r	ankle_angle_r	subtalar_angle_r	mtp_angle_r	hip_flexion_l	hip_adduction_l	hip_rotation_l	knee_angle_l	ankle_angle_l	subtalar_angle_l	mtp_angle_l	lumbar_extension	lumbar_bending	lumbar_rotation
      0.50300000	      5.68219430	     -0.48383010	      3.28776088	     -0.74870962	      0.99790474	      0.29135928	     17.95582364	      3.32895053	     -1.19205917	     -8.79464277	      3.25404148	    -14.41604551	     -0.70847123	    -21.45822774	      3.24794457	      2.09635906	     -5.39454093	     10.47415584	     -3.75767529	      0.14579961	     -8.13403207	      3.12080766	     -1.09667098
      0.50716667	      5.71605531	     -0.55565341	      3.32408798	     -0.74276233	      0.99733442	      0.29149202	     17.76696136	      3.47316287	     -1.29318304	     -8.64786198	      2.97705434	    -14.35425787	     -1.06305193	    -21.51314200	      3.12060583	      1.87538369	     -6.06535397	     10.66708422	     -3.29735941	      0.13911811	     -8.12552755	      3.20611920	     -1.18210782
      0.51133333	      5.67267069	     -0.59870265	      3.36266727	     -0.73683483	      0.99671940	      0.29159231	     17.68909145	      3.58011512	     -1.36698568	     -8.63103531	      2.68811796	    -14.33300639	     -1.19492937	    -21.48405462	      3.04291950	      1.88740538	     -6.73092001	     10.75201086	     -3.22365885	      0.15068968	     -8.03712240	      3.27720530	     -1.18843069
      0.51550000	      5.67666142	     -0.66347921	      3.36857232	     -0.73084010	      0.99617670	      0.29176494	     17.55819660	      3.72548949	     -1.40513418	     -8.67876636	      2.40451145	    -14.35300563	     -1.46189207	    -21.44463571	      2.93089183	      1.62549860	     -7.51969266	     10.89690559	     -2.77729433	      0.21461073	     -7.97674072	      3.35206421	     -1.26758052
      0.51966667	      5.65575019	     -0.72056366	      3.38736581	     -0.72482827	      0.99566057	      0.29189436	     17.45725922	      3.85321517	     -1.45522519	     -8.78656140	      1.99998037	    -14.33982554	     -1.54821119	    -21.40009919	      2.84077094	      1.61650895	     -8.26043931	     10.90700113	     -2.69848856	      0.25315664	     -7.90243837	      3.42939704	     -1.26112917
      0.52383333	      5.62630558	     -0.78102948	      3.37774665	     -0.71879795	      0.99514555	      0.29209797	     17.37516218	      3.99709703	     -1.43642077	     -8.97108120	      1.64749863	    -14.40965870	     -1.71006673	    -21.25464132	      2.73470137	      1.35958731	     -9.18307173	     10.99748863	     -2.24192588	      0.39391189	     -7.80367745	      3.50121811	     -1.30881552
      0.52800000	      5.61280300	     -0.84269909	      3.36936188	     -0.71273124	      0.99471749	      0.29226358	     17.27784640	      4.13445826	     -1.45012718	     -9.20077292	      1.15942372	    -14.41385452	     -1.76089417	    -21.16097910	      2.64460067	      1.31977944	    -10.02857715	     10.92913976	     -2.15475383	      0.46383692	     -7.73588857	      3.58343507	     -1.29363947
      0.53216667	      5.60149004	     -0.92116266	      3.34387462	     -0.70665028	      0.99430781	      0.29251044	     17.17524567	      4.30441697	     -1.37137044	     -9.47166320	      0.76271248	    -14.55326010	     -1.84035955	    -20.97600769	      2.51361389	      1.03740253	    -11.05646516	     10.95350049	     -1.66330000	      0.69744017	     -7.65127844	      3.67290963	     -1.30463663
      0.53633333	      5.57351562	     -0.99629854	      3.31031389	     -0.70055073	      0.99392289	      0.29275254	     17.09871252	      4.46725457	     -1.29097404	     -9.78939595	      0.29143748	    -14.69734660	     -1.89429476	    -20.76641306	      2.39640579	      0.85201167	    -12.09147536	     10.87479123	     -1.34578075	      1.01822330	     -7.55593485	      3.76534073	     -1.27996874
      0.54050000	      5.63736694	     -1.10417807	      3.26046857	     -0.69441987	      0.99370612	      0.29304745	     16.88050033	      4.68622913	     -1.09867678	    -10.04272166	     -0.28735653	    -15.04086506	     -1.96114391	    -20.63495927	      2.23602689	      0.61759956	    -13.15342055	     10.70745549	     -1.01866014	      2.48062906	     -7.57153261	      3.89356378	     -1.23006535
      0.54466667	      5.57135949	     -1.16254190	      3.21405007	     -0.68830524	      0.99334336	      0.29327378	     16.89757813	      4.81226176	     -1.09932357	    -10.51944189	     -0.75099573	    -14.99045422	     -1.96124982	    -20.33669023	      2.15086013	      0.54745170	    -14.26009737	     10.43981917	     -0.90522864	      2.59288346	     -7.43132483	      3.97034346	     -1.18869088
      0.54883333	      5.55664146	     -1.26014200	      3.15853354	     -0.68217583	      0.99306811	      0.29360207	     16.81800024	      5.00508990	     -0.95328455	    -10.93739357	     -1.11103656	    -15.19753537	     -1.91562556	    -19.99807804	      1.98027749	      0.21976724	    -15.54744055	     10.23498531	     -0.35475470	      3.13291696	     -7.33603043	      4.08412897	     -1.13262881
      0.55300000	      5.57248145	     -1.38572421	      3.12049804	     -0.67605995	      0.99288480	      0.29391414	     16.68077664	      5.23156092	     -0.76551500	    -11.30467251	     -1.68098959	    -15.67899373	     -1.63566719	    -19.67653930	      1.78350608	      0.02652102	    -16.85004232	      9.96159685	     -0.08989952	      5.98430321	     -7.29375007	      4.24143908	     -1.02905138
      0.55716667	      5.51246903	     -1.43241737	      3.01457168	     -0.66997205	      0.99260804	      0.29426794	     16.70700135	      5.35835494	     -0.65060268	    -11.85804655	     -2.04644615	    -15.55571467	     -1.62158546	    -19.24480078	      1.69562808	     -0.18198594	    -18.19187157	      9.52375883	      0.20355461	      6.12045714	     -7.15824151	      4.27858189	     -0.97367537
